<svg width="16" height="17" viewBox="0 0 16 17" fill="none" xmlns="http://www.w3.org/2000/svg">
<g id="Twitter - Negative" clip-path="url(#clip0_2_134)">
<path id="Vector" d="M5.02724 15.0855C11.0561 15.0855 14.3545 9.88135 14.3545 5.36966C14.3545 5.22336 14.3514 5.0738 14.3451 4.9275C14.9868 4.44414 15.5405 3.84542 15.9803 3.1595C15.3827 3.43645 14.7482 3.61732 14.0986 3.69594C14.7826 3.26881 15.2948 2.59781 15.5402 1.80732C14.8967 2.2046 14.1929 2.48485 13.459 2.63605C12.9646 2.08878 12.3108 1.72642 11.5988 1.60499C10.8868 1.48357 10.1563 1.60985 9.52009 1.9643C8.8839 2.31876 8.37753 2.88165 8.07927 3.56595C7.781 4.25025 7.70745 5.01784 7.86998 5.75005C6.5669 5.68194 5.2921 5.32932 4.12823 4.71508C2.96436 4.10083 1.93741 3.23866 1.11394 2.18446C0.695409 2.93612 0.567338 3.82558 0.755755 4.67207C0.944172 5.51856 1.43494 6.25855 2.12831 6.74167C1.60777 6.72445 1.09863 6.57846 0.642957 6.31576V6.35802C0.642491 7.14684 0.904283 7.91147 1.38383 8.52196C1.86338 9.13244 2.53109 9.5511 3.27346 9.70676C2.79126 9.84419 2.28517 9.86421 1.79435 9.76528C2.00383 10.4437 2.41141 11.037 2.9602 11.4625C3.50898 11.888 4.1716 12.1243 4.85557 12.1387C3.69439 13.0888 2.26 13.6041 0.783409 13.6017C0.521548 13.6013 0.259945 13.5846 0 13.5516C1.50005 14.5541 3.24502 15.0865 5.02724 15.0855Z" fill="#0C0C0C"/>
</g>
<defs>
<clipPath id="clip0_2_134">
<rect width="15.9803" height="16.6461" fill="white"/>
</clipPath>
</defs>
</svg>
